<svg width="73" height="41" viewBox="0 0 73 41" fill="none" xmlns="http://www.w3.org/2000/svg">
<g clip-path="url(#clip0_1999_23678)">
<path d="M0.796875 15.3605V0.540039H6.34358C9.31589 0.540039 12.0995 2.04768 12.0995 5.50199V10.4845C12.0995 13.8977 9.31589 15.3624 6.34358 15.3624H0.796875V15.3605ZM6.47061 11.8427C7.49626 11.8427 8.33321 11.2766 8.33321 10.4826V5.50012C8.33321 4.68372 7.49626 4.03545 6.47061 4.03545H4.56504V11.8445H6.47061V11.8427Z" fill="#0E71A1"/>
<path d="M13.8594 0.540039H17.607V15.3605H13.8594V0.540039Z" fill="#0E71A1"/>
<path d="M27.2361 4.9562C26.4197 2.96656 23.1129 3.42801 23.1129 5.37468V10.4412C23.1129 12.7018 27.4472 12.6812 27.4472 10.4412V9.95925H25.082V6.75715H31.0491V10.4412C31.0491 13.8526 28.2019 15.5284 25.2296 15.5284C22.2573 15.5284 19.3672 13.8545 19.3672 10.4412V5.37468C19.3672 2.02499 22.2984 0.351074 25.2296 0.351074C27.1557 0.351074 29.3527 1.14693 30.3803 3.51208L27.2398 4.9562H27.2361Z" fill="#0E71A1"/>
<path d="M49.6987 0.519043V4.07797H45.7007V15.3619H41.912V4.07797H37.9141V0.519043H49.7006H49.6987Z" fill="#0E71A1"/>
<path d="M53.0443 0.540039H56.4557L61.752 15.3605H57.7335L56.7714 12.3882H52.8145L51.8935 15.3605H47.875L53.0443 0.540039ZM54.636 4.72669L53.6515 9.06092H55.8709L54.9088 4.72669H54.636Z" fill="#0E71A1"/>
<path d="M72.2812 15.3605H62.4844V0.540039H66.2525V11.6559H72.2812V15.3605Z" fill="#0E71A1"/>
<path d="M42.2341 17.8354V27.6958C42.2341 30.0815 46.4618 30.0815 46.4842 27.6958V17.8354H50.2729V27.6958C50.2524 34.6456 38.4248 34.6456 38.4453 27.6958V17.8354H42.2341Z" fill="#0E71A1"/>
<path d="M61.1605 24.7647C63.1912 25.7903 63.4416 27.6959 63.2547 28.8261C62.8774 31.2118 61.2651 32.6578 57.9789 32.6578H51.9297V17.8149H57.8743C60.7009 17.8149 62.7727 19.5318 62.6887 22.3584C62.6681 23.0291 62.2291 24.221 61.1605 24.7665V24.7647ZM57.8743 23.6344C59.6958 23.6344 59.7575 20.9759 57.8743 20.9759H55.6979V23.6344H57.8743ZM55.6979 26.3358V29.3717H57.8743C60.1348 29.3717 60.0937 26.3358 57.8743 26.3358H55.6979Z" fill="#0E71A1"/>
<path d="M32.7407 0.540039V23.3732H28.4195V17.8153H24.6719V40.9063H28.4195V27.1209H32.7407V32.6564H36.4883V0.540039H32.7407Z" fill="#0E71A1"/>
</g>
<defs>
<clipPath id="clip0_1999_23678">
<rect width="71.485" height="40.555" fill="white" transform="translate(0.796875 0.350098)"/>
</clipPath>
</defs>
</svg>
